<svg id="Layer_1" data-name="Layer 1" xmlns="http://www.w3.org/2000/svg" viewBox="0 0 425.92 136.67"><defs><style>.cls-1{fill:#292827;}</style></defs><path class="cls-1" d="M45.62,22.69c-15.38,0-22.93,13.69-22.93,32v45.8H1V3.8H22.32V28.88h.37C27.24,13.46,36.31,1,50.29,1c9.84,0,14,3.47,14,3.47l-9.79,19.9S51.37,22.69,45.62,22.69ZM307.83,36v64.5H286.7V43.81c0-16.26-5.05-24.86-17.95-24.86-13.35,0-19.82,10.89-19.82,31.78v49.73H228V43.81C228,28.18,223,19,210.23,19,195.65,19,190,31.85,190,50.73v49.73H168.73V3.8H190V25.69h.19c3.32-15.15,12.38-24.5,27.67-24.5s25,8.23,28.79,22.82c3.57-14,13.07-22.82,27.67-22.82C294.73,1.19,307.83,14.09,307.83,36ZM106.91,1c-19.6,0-32.44,9.3-38.29,26.09l18,6.63C90,23.59,96.81,17.83,107.28,17.83c11.78,0,18.7,5.23,18.7,13.27,0,8.22-5.51,9.94-18,12-13.83,2.25-46.74,3-46.74,31,0,16.43,13.6,28.8,34,28.8,15.36,0,25.82-6.34,30.66-18.14h.19v15.7h21.12V41C147.29,15,134.33,1,106.91,1Zm19.63,54c0,20.27-9.93,33.3-25.8,33.3-11.22,0-17.95-6.36-17.95-15.53,0-8.6,6.92-14.57,20.19-17,13.58-2.52,20.42-5.63,23.56-13.09ZM383,1.19c-16.16,0-26.84,9-31.41,22.44V3.8H329.14V137.67h22.25v-57h.19c4.95,14.6,15.26,22.64,31.41,22.64,25.61,0,43.94-21.32,43.94-51.42C426.93,21.94,408.6,1.19,383,1.19Zm-5.51,84.13c-17.74,0-27.58-13-27.58-33.19S360.91,19,377.48,19s27.57,13.62,27.57,33.18S394,85.32,377.48,85.32Z" transform="translate(-1 -1)"/></svg>
